<?xml version="1.0" encoding="UTF-8"?>
<svg width="210px" height="72px" viewBox="0 0 210 72" version="1.1" xmlns="http://www.w3.org/2000/svg" xmlns:xlink="http://www.w3.org/1999/xlink">
    <title>iyzico_ile_ode_white</title>
    <defs>
        <linearGradient x1="90.2554899%" y1="50%" x2="0%" y2="50%" id="linearGradient-1">
            <stop stop-color="#FFFFFF" offset="0%"></stop>
            <stop stop-color="#FFFFFF" stop-opacity="0" offset="100%"></stop>
        </linearGradient>
    </defs>
    <g id="05---Landings" stroke="none" stroke-width="1" fill="none" fill-rule="evenodd">
        <g id="004.0.0-Brand-Kit" transform="translate(-615.000000, -1846.000000)">
            <g id="Group-2-Copy" transform="translate(135.000000, 1674.000000)">
                <g id="Group-4-Copy" transform="translate(400.000000, 83.000000)">
                    <g id="Group" transform="translate(80.000000, 88.000000)">
                        <g id="Group" transform="translate(0.000000, 1.761905)">
                            <g transform="translate(98.823529, 0.000000)" fill="#FFFFFF" fill-rule="nonzero" id="Brand/1--Logo/colored">
                                <g id="Group-21">
                                    <path d="M26.3460933,10.3200443 C27.0539156,8.96310311 28.7326775,8.43380144 30.0971348,9.14030611 C31.4620553,9.84819518 31.991764,11.5221636 31.2800041,12.8816429 L31.2800041,12.8816429 L18.5922422,37.2708209 C18.1146474,38.182678 17.199296,38.7184402 16.2385476,38.7585878 C15.76628,38.7816611 15.2835896,38.684984 14.8356418,38.448944 C13.4709529,37.7433623 12.9417075,36.0693938 13.6513828,34.7096838 L13.6513828,34.7096838 L17.2391342,27.8061503 L9.46860667,12.8816429 C8.75893139,11.5221636 9.2918827,9.84819518 10.6549503,9.14030611 C12.0177862,8.43380144 13.6997908,8.96310311 14.4064551,10.3200443 L14.4064551,10.3200443 L20.3759267,21.7842478 Z M77.4121868,8.45791305 C80.4222847,8.45791305 83.2519528,9.6254224 85.3812103,11.7467823 C86.4637894,12.8300741 86.4637894,14.5852605 85.3812103,15.6687831 C84.2923776,16.7488446 82.5300018,16.7488446 81.4441801,15.6687831 C80.3653069,14.5935669 78.9376181,14.0047361 77.4121868,14.0047361 C75.8909246,14.0047361 74.4609197,14.5935669 73.3850575,15.6687831 C72.3080372,16.7370772 71.7162551,18.1641612 71.7162551,19.6814619 C71.7162551,21.1973782 72.3080372,22.6228472 73.3850575,23.6959867 C74.4609197,24.7647423 75.8909246,25.3621102 77.4121868,25.3621102 C78.9376181,25.3621102 80.3653069,24.7647423 81.4441801,23.6959867 C82.5300018,22.6115412 84.2923776,22.6115412 85.3812103,23.6959867 C86.4637894,24.7785863 86.4637894,26.5349264 85.3812103,27.6131421 C83.2519528,29.7349634 80.4222847,30.9043186 77.4121868,30.9043186 C74.4057948,30.9043186 71.5775164,29.7349634 69.4498802,27.6131421 C67.3220125,25.4982427 66.1493343,22.6777616 66.1493343,19.6814619 C66.1493343,16.681932 67.3220125,13.8681422 69.4498802,11.7467823 C71.5775164,9.6254224 74.4057948,8.45791305 77.4121868,8.45791305 Z M99.9116497,8.45784383 C106.123161,8.45784383 111.176355,13.4922088 111.176355,19.6813927 C111.176355,25.869423 106.123161,30.9044801 99.9116497,30.9044801 C93.7026858,30.9044801 88.6501868,25.869423 88.6501868,19.6813927 C88.6501868,13.4922088 93.7026858,8.45784383 99.9116497,8.45784383 Z M3.07344564,8.828355 C4.61022617,8.828355 5.85609542,10.0696989 5.85609542,11.5966904 L5.85609542,11.5966904 L5.85609542,27.8112264 C5.85609542,29.3435247 4.61022617,30.5816384 3.07344564,30.5816384 C1.53666511,30.5816384 0.290332633,29.3435247 0.290332633,27.8112264 L0.290332633,27.8112264 L0.290332633,11.5966904 C0.290332633,10.0696989 1.53666511,8.828355 3.07344564,8.828355 Z M48.9244673,8.82696086 C48.991169,8.82698582 49.0553,8.82701256 49.1167131,8.82704114 L49.9563717,8.82793487 C49.9886721,8.82805012 50.0059797,8.82817461 50.0071167,8.82830885 L50.2066735,8.82855897 C50.8051493,8.85045461 51.3983721,9.06305668 51.8917863,9.47713025 C53.0674756,10.4561307 53.2212694,12.2076254 52.2355064,13.3790573 L52.2355064,13.3790573 L42.4126183,25.037538 L50.099532,25.037538 C51.6374706,25.037538 52.8851928,26.2821122 52.8851928,27.8111803 C52.8851928,29.3437093 51.6374706,30.5815923 50.099532,30.5815923 L50.099532,30.5815923 L36.4461577,30.5815923 C35.814769,30.5815923 35.1782848,30.3723174 34.6571459,29.9330016 C33.4814567,28.9512324 33.3262732,27.2043523 34.3150472,26.0287673 L34.3150472,26.0287673 L44.136314,14.374209 L37.7156519,14.374209 C36.1770184,14.374209 34.9330021,13.1296348 34.9330021,11.596875 C34.9330021,10.0696528 36.1770184,8.82830885 37.7156519,8.82830885 L37.7156519,8.82830885 L38.7843468,8.8280093 C38.8506867,8.82799155 38.9196077,8.82797324 38.9909625,8.82795444 L43.3479972,8.82700386 C43.459249,8.8269854 43.5707267,8.82696745 43.6822832,8.82695007 Z M59.7206119,8.828355 C61.2604034,8.828355 62.5032617,10.0696989 62.5032617,11.5966904 L62.5032617,11.5966904 L62.5032617,27.8112264 C62.5032617,29.3435247 61.2604034,30.5816384 59.7206119,30.5816384 C58.1852211,30.5816384 56.9412048,29.3435247 56.9412048,27.8112264 L56.9412048,27.8112264 L56.9412048,11.5966904 C56.9412048,10.0696989 58.1852211,8.828355 59.7206119,8.828355 Z M99.9116497,14.0046669 C96.770688,14.0046669 94.2171077,16.5505756 94.2171077,19.6813927 C94.2171077,22.8112869 96.770688,25.362041 99.9116497,25.362041 C103.054696,25.362041 105.611982,22.8112869 105.611982,19.6813927 C105.611982,16.5505756 103.054696,14.0046669 99.9116497,14.0046669 Z M3.07344564,6.68248525e-15 C4.7702737,6.68248525e-15 6.14816478,1.37193885 6.14816478,3.06436595 C6.14816478,4.75333204 4.7702737,6.12780896 3.07344564,6.12780896 C1.37661759,6.12780896 -0.000115412095,4.75333204 -0.000115412095,3.06436595 C-0.000115412095,1.37193885 1.37661759,6.68248525e-15 3.07344564,6.68248525e-15 Z M59.7206119,6.68248525e-15 C61.4206826,6.68248525e-15 62.797184,1.37193885 62.797184,3.06436595 C62.797184,4.75333204 61.4206826,6.12780896 59.7206119,6.12780896 C58.0219309,6.12780896 56.6454295,4.75333204 56.6454295,3.06436595 C56.6454295,1.37193885 58.0219309,6.68248525e-15 59.7206119,6.68248525e-15 Z" id="Combined-Shape"></path>
                                </g>
                            </g>
                            <path d="M141.776792,47.2960567 C146.558737,47.2960567 151.285416,51.3156035 151.285416,57.1252375 C151.285416,62.9348714 146.558737,66.952381 141.776792,66.952381 C136.99552,66.952381 132.268842,62.9348714 132.268842,57.1252375 C132.268842,51.3156035 136.99552,47.2960567 141.776792,47.2960567 Z M165.659224,47.103534 C166.45116,47.103534 167.134584,47.7649699 167.134584,48.5629032 L167.134584,65.4661876 C167.134584,66.2654792 166.45116,66.9255568 165.659224,66.9255568 C164.866614,66.9255568 164.210823,66.2654792 164.210823,65.4661876 L164.210823,63.9796548 C164.020084,65.218319 162.325004,66.9520414 159.729476,66.9520414 C156.697204,66.9520414 153.063734,64.5847259 153.063734,59.6035845 C153.063734,54.7018969 156.724163,52.2795749 159.729476,52.2795749 C161.75144,52.2795749 163.50044,53.3267351 164.210823,54.9219227 L164.210823,53.8211143 C164.210823,53.7389441 164.210823,53.6282521 164.238457,53.5460819 L164.238457,48.5629032 C164.238457,47.7649699 164.894921,47.103534 165.659224,47.103534 Z M99.9982907,52.3631033 C100.598814,52.3631033 101.117785,52.8860043 101.117785,53.5195973 L101.117785,65.74122 C101.117785,66.4033349 100.598814,66.9255568 99.9982907,66.9255568 C99.3701338,66.9255568 98.8504889,66.4033349 98.8504889,65.74122 L98.8504889,53.5195973 C98.8504889,52.8860043 99.3701338,52.3631033 99.9982907,52.3631033 Z M105.298668,47.1036699 C105.900539,47.1036699 106.41951,47.627929 106.41951,48.2330002 L106.41951,65.7413558 C106.41951,66.3471061 105.900539,66.8971708 105.298668,66.8971708 C104.669837,66.8971708 104.15154,66.3471061 104.15154,65.7413558 L104.15154,48.2330002 C104.15154,47.627929 104.669837,47.1036699 105.298668,47.1036699 Z M115.874081,52.2797107 C118.98858,52.2797107 122.730562,54.7577183 122.730562,59.2179959 C122.730562,60.0974204 122.211591,60.5116666 121.283509,60.5116666 L111.228955,60.4566602 C111.474286,63.5397388 113.824483,64.9984289 116.174005,64.9984289 C117.430319,64.9984289 118.441301,64.6405473 119.342423,63.9512687 C119.752882,63.6769155 119.998888,63.5397388 120.298813,63.5397388 C120.819131,63.5397388 121.146016,63.8976204 121.146016,64.3926787 C121.146016,64.6955538 121.00987,64.9984289 120.544818,65.411317 C119.452284,66.3742697 117.841452,66.8971708 116.118738,66.8971708 C112.621414,66.8971708 108.879432,64.5848617 108.879432,59.6302049 C108.879432,54.6755481 112.758908,52.2797107 115.874081,52.2797107 Z M176.671583,52.2795749 C179.786082,52.2795749 183.529412,54.7575824 183.529412,59.1343318 C183.529412,60.2636621 182.900581,60.704393 181.72582,60.704393 L172.573061,60.6758711 C172.872986,63.2360488 174.867991,64.5032349 177.053734,64.5032349 C178.174576,64.5032349 178.939553,64.2282025 179.786082,63.7053015 C180.25046,63.4574328 180.551058,63.2645707 180.93321,63.2645707 C181.56204,63.2645707 181.944866,63.7053015 181.944866,64.3103727 C181.944866,64.6689334 181.808046,65.0539787 181.206849,65.5483578 C180.168907,66.4033349 178.66524,66.8970349 176.943874,66.8970349 C173.393305,66.8970349 169.595382,64.6132478 169.595382,59.6300691 C169.595382,54.6754123 173.557084,52.2795749 176.671583,52.2795749 Z M160.194528,54.784067 C158.200197,54.784067 155.959187,56.3548073 155.959187,59.6035845 C155.959187,62.8788463 158.200197,64.4475493 160.194528,64.4475493 C162.052713,64.4475493 164.347643,63.0160229 164.347643,59.6035845 C164.347643,56.1619451 162.052713,54.784067 160.194528,54.784067 Z M141.776792,50.1047821 C138.443247,50.1047821 135.356381,52.9413503 135.356381,57.1252375 C135.356381,61.3091246 138.443247,64.1171709 141.776792,64.1171709 C145.110337,64.1171709 148.197877,61.3091246 148.197877,57.1252375 C148.197877,52.9413503 145.137297,50.1047821 141.776792,50.1047821 Z M115.874081,54.2905028 C113.851442,54.2905028 111.474286,55.6656645 111.228955,58.7487432 L120.517859,58.7487432 C120.272527,55.6656645 117.922331,54.2905028 115.874081,54.2905028 Z M176.671583,54.8125889 C174.867991,54.8125889 172.819067,55.969083 172.573061,58.5842671 L180.714837,58.5842671 C180.469506,55.969083 178.502808,54.8125889 176.671583,54.8125889 Z M99.9982907,46.8285017 C100.598814,46.8285017 101.145418,47.3514027 101.145418,47.9849957 C101.145418,48.6179097 100.598814,49.1414898 99.9982907,49.1414898 C99.3701338,49.1414898 98.8235294,48.6179097 98.8235294,47.9849957 C98.8235294,47.3514027 99.3701338,46.8285017 99.9982907,46.8285017 Z M145.137297,42.2857143 C146.011459,42.2857143 146.721843,43.0014775 146.721843,43.8564546 C146.721843,44.7093944 146.011459,45.4251576 145.137297,45.4251576 C144.263134,45.4251576 143.55275,44.7093944 143.55275,43.8564546 C143.55275,43.0014775 144.263134,42.2857143 145.137297,42.2857143 Z M138.416961,42.2857143 C139.29045,42.2857143 140.000159,43.0014775 140.000159,43.8564546 C140.000159,44.7093944 139.29045,45.4251576 138.416961,45.4251576 C137.542124,45.4251576 136.831741,44.7093944 136.831741,43.8564546 C136.831741,43.0014775 137.542124,42.2857143 138.416961,42.2857143 Z" id="Combined-Shape" fill="#FFFFFF"></path>
                            <g id="Group-3" fill="url(#linearGradient-1)">
                                <path d="M8.73529412,0 C3.91108235,0 0,3.94353439 0,8.80952381 L0,61.6666667 C0,66.5326561 3.91108235,70.4761905 8.73529412,70.4761905 L62.3295529,70.4761905 C65.5868471,70.4761905 68.5731529,68.649291 70.0771765,65.734709 L83.7197647,39.3069206 C84.3657882,38.0540106 84.6942353,36.6844233 84.7058824,35.3132698 L84.7058824,35.1629206 C84.6942353,33.7917672 84.3657882,32.4221799 83.7197647,31.1700529 L70.0771765,4.74148148 C68.5731529,1.82768254 65.5868471,0 62.3295529,0 L8.73529412,0 Z" id="Fill-1"></path>
                            </g>
                        </g>
                    </g>
                </g>
            </g>
        </g>
    </g>
</svg>